<svg xmlns:dc="http://purl.org/dc/elements/1.1/" xmlns:cc="http://creativecommons.org/ns#" xmlns:rdf="http://www.w3.org/1999/02/22-rdf-syntax-ns#" xmlns:svg="http://www.w3.org/2000/svg" xmlns="http://www.w3.org/2000/svg" xmlns:xlink="http://www.w3.org/1999/xlink" xmlns:sodipodi="http://sodipodi.sourceforge.net/DTD/sodipodi-0.dtd" xmlns:inkscape="http://www.inkscape.org/namespaces/inkscape" id="svg20270" sodipodi:version="0.32" inkscape:version="0.48.4 r9939" sodipodi:docname="mail.svg" version="1.1" viewBox="0 0 300 300" height="100px" width="100px">
    <defs id="defs3">
        <linearGradient inkscape:collect="always" id="linearGradient3783">
            <stop style="stop-color:#000000;stop-opacity:1;" offset="0" id="stop3785" />
            <stop style="stop-color:#000000;stop-opacity:0;" offset="1" id="stop3787" />
        </linearGradient>
        <radialGradient inkscape:collect="always" xlink:href="#linearGradient3783" id="radialGradient3789" cx="275.9375" cy="644.23718" fx="275.9375" fy="644.23718" r="82.8125" gradientTransform="matrix(1,0,0,0.12830189,0,561.58034)" gradientUnits="userSpaceOnUse" />
        <filter inkscape:collect="always" id="filter3795" x="-0.035815287" width="1.0716306" y="-0.27023304" height="1.5404661" color-interpolation-filters="sRGB">
            <feGaussianBlur inkscape:collect="always" stdDeviation="2.471544" id="feGaussianBlur3797" />
        </filter>
        <radialGradient inkscape:collect="always" xlink:href="#linearGradient3783" id="radialGradient3831" gradientUnits="userSpaceOnUse" gradientTransform="matrix(1,0,0,0.12830189,0,561.58034)" cx="275.9375" cy="644.23718" fx="275.9375" fy="644.23718" r="82.8125" />
    </defs>
    <sodipodi:namedview id="base" pagecolor="#ffffff" bordercolor="#666666" borderopacity="1.0" inkscape:pageopacity="0.0" inkscape:pageshadow="2" inkscape:zoom="1" inkscape:cx="351.20719" inkscape:cy="105.42306" inkscape:current-layer="layer1" inkscape:window-width="1680" inkscape:window-height="1007" inkscape:window-x="0" inkscape:window-y="0" showgrid="false" fit-margin-top="0" fit-margin-left="0" fit-margin-right="0" fit-margin-bottom="0" inkscape:window-maximized="1" />
    <metadata id="metadata4">
        <rdf:RDF>
            <cc:Work rdf:about="">
                <dc:format>image/svg+xml</dc:format>
                <dc:type rdf:resource="http://purl.org/dc/dcmitype/StillImage" />
                <dc:title />
            </cc:Work>
        </rdf:RDF>
    </metadata>
    <g inkscape:label="Layer 1" inkscape:groupmode="layer" id="layer1" transform="translate(-206.75236,-438.06735)">
        <g id="g3799" transform="matrix(0.95719045,0,0,0.95719045,15.226001,23.753364)">
            <path transform="matrix(0.997822,0.04597765,-0.0659693,1.3541712,62.47596,-236.36578)" d="m 358.75,644.23718 c 0,5.86803 -37.07642,10.625 -82.8125,10.625 -45.73608,0 -82.8125,-4.75697 -82.8125,-10.625 0,-5.86802 37.07642,-10.625 82.8125,-10.625 45.73608,0 82.8125,4.75698 82.8125,10.625 z" sodipodi:ry="10.625" sodipodi:rx="82.8125" sodipodi:cy="644.23718" sodipodi:cx="275.9375" id="path3087" style="opacity:0.4;fill:url(#radialGradient3831);fill-opacity:1;stroke:none;filter:url(#filter3795)" sodipodi:type="arc" />
            <path sodipodi:nodetypes="cccc" id="path9065" d="m 380.02215,522.25079 c 7.81882,-27.80216 49.36931,-33.60428 59.64799,-28.80438 10.49,12.14369 -4.94483,21.34588 -19.58339,31.00489 -15.71652,21.24 -43.64011,49.76964 -60.4555,58.54129" style="fill:#a7a7a7;fill-opacity:1;stroke:#000000;stroke-width:2.49999857;stroke-linecap:butt;stroke-linejoin:miter;stroke-miterlimit:4;stroke-opacity:1" inkscape:connector-curvature="0" />
            <path sodipodi:nodetypes="csss" id="path1080" d="m 385.39188,647.22309 c 12.05818,-6.87977 7.71268,-20.983 -33.89621,-20.96543 -56.00967,0.0237 -45.35945,22.21599 -21.89765,26.0606 28.90402,4.7364 46.93626,-0.0415 55.79386,-5.09517 z" style="fill:#fba809;fill-opacity:1;stroke:#000000;stroke-width:2.49999976;stroke-linecap:butt;stroke-linejoin:miter;stroke-miterlimit:4;stroke-opacity:1" inkscape:connector-curvature="0" />
            <path sodipodi:nodetypes="csss" id="path2112" d="m 368.59809,652.08445 c 12.05818,-6.87977 5.06103,-20.983 -36.54786,-20.96543 -56.00967,0.0237 -43.59168,17.79657 -20.12988,21.64118 28.90402,4.7364 47.82014,4.37793 56.67774,-0.67575 z" style="fill:#fba809;fill-opacity:1;stroke:#000000;stroke-width:2.49999976;stroke-linecap:butt;stroke-linejoin:miter;stroke-miterlimit:4;stroke-opacity:1" inkscape:connector-curvature="0" />
            <path sodipodi:nodetypes="cccc" id="path1705" d="m 391.54395,527.99385 c 32.48011,-125.20759 -109.20352,-109.87516 -97.97263,-3.47869 -55.85933,120.98232 28.59763,121.81202 61.72263,122.85369 83.33333,-9.79167 43.54167,-93.95833 36.25,-119.375 z" style="fill:#a7a7a7;fill-opacity:1;fill-rule:evenodd;stroke:#000000;stroke-width:2.5625;stroke-linecap:butt;stroke-linejoin:miter;stroke-miterlimit:4;stroke-opacity:1" inkscape:connector-curvature="0" />
            <path transform="matrix(1.103449,0,0,1,-41.0701,0.441942)" d="m 401.2831,601.13965 c 0,19.72841 -11.47611,35.72145 -25.63262,35.72145 -14.1565,0 -25.63262,-15.99304 -25.63262,-35.72145 0,-19.72842 11.47612,-35.72146 25.63262,-35.72146 14.15651,0 25.63262,15.99304 25.63262,35.72146 z" sodipodi:ry="35.721455" sodipodi:rx="25.632622" sodipodi:cy="601.13965" sodipodi:cx="375.65048" id="path1081" style="fill:#c4c4c4;fill-opacity:0.68825911;stroke:none" sodipodi:type="arc" />
            <path sodipodi:nodetypes="ccccccc" id="path1732" d="m 249.25514,633.40141 c 9.72272,11.19586 42.2791,19.37178 57.01049,21.21321 14.73139,1.84142 25.77993,0.0737 31.37786,-10.16466 5.59793,-10.23832 12.30071,-39.7011 2.20971,-51.26524 -10.091,-11.56414 -47.43508,-17.16207 -62.75573,-18.11961 -15.32065,-0.95754 -24.52776,2.65164 -29.16815,12.37436 -4.64039,9.72272 -8.3969,34.76608 1.32582,45.96194 z" style="fill:#303030;fill-opacity:1;stroke:#000000;stroke-width:2.5;stroke-linecap:butt;stroke-linejoin:miter;stroke-miterlimit:4;stroke-opacity:1" inkscape:connector-curvature="0" />
            <path sodipodi:nodetypes="ccccc" id="path1087" d="m 392.41898,525.98264 c -23.05108,30.90321 -77.29069,75.0157 -67.67707,94.27507 2.32968,4.78988 7.32765,6.66902 13.1674,-0.12807 5.37186,-33.18686 51.48713,-61.81487 60.52671,-86.00138 0.9539,-4.77019 0.67113,-2.90416 -6.01704,-8.14562 z" style="fill:#2f2f2f;fill-opacity:1;stroke:#000000;stroke-width:2.5;stroke-linecap:butt;stroke-linejoin:miter;stroke-miterlimit:4;stroke-opacity:1" inkscape:connector-curvature="0" />
            <path sodipodi:nodetypes="ccccc" id="path4223" d="m 257.75618,629.20078 c 9.47915,7.22982 24.72205,11.65922 42.29221,13.97872 5.35227,-8.4564 7.91275,-18.48316 7.40234,-28.59717 -10.67855,-8.24334 -25.6366,-12.47612 -39.17697,-12.24632 -5.80026,6.0845 -11.28279,17.84199 -10.51758,26.86477 z" style="fill:#efefef;fill-opacity:1;stroke:#000000;stroke-width:2.49999976;stroke-linecap:butt;stroke-linejoin:miter;stroke-miterlimit:4;stroke-opacity:1" inkscape:connector-curvature="0" />
            <path sodipodi:nodetypes="ccsc" id="path8443" d="m 295.2372,524.87924 c -39.12321,20.6727 -58.92887,63.2572 -52.9513,83.86709 8.84357,4.71648 21.12843,-11.51161 26.55338,-15.14713 8.21819,-5.50741 22.42277,-23.36567 35.3739,-25.87001" style="fill:#a7a7a7;fill-opacity:1;stroke:#000000;stroke-width:2.50000024;stroke-linecap:butt;stroke-linejoin:miter;stroke-miterlimit:4;stroke-opacity:1" inkscape:connector-curvature="0" />
            <path sodipodi:nodetypes="ccc" id="path4057" d="m 372.33744,459.53885 c 15.49899,3.56265 15.98909,46.36654 5.78836,46.93658 -22.62737,3.13513 -15.13282,-49.00293 -5.78836,-46.93658 z" style="fill:#ffffff;fill-opacity:1;fill-rule:evenodd;stroke:#000000;stroke-width:2.50000024;stroke-linecap:butt;stroke-linejoin:miter;stroke-miterlimit:4;stroke-opacity:1" inkscape:connector-curvature="0" />
            <path sodipodi:nodetypes="ccc" id="path4059" d="m 361.18302,458.54157 c 15.23308,5.38866 13.85799,47.94719 3.70549,47.29472 -22.60171,0.41011 -12.89318,-50.46256 -3.70549,-47.29472 z" style="fill:#ffffff;fill-opacity:1;fill-rule:evenodd;stroke:#000000;stroke-width:2.5;stroke-linecap:butt;stroke-linejoin:miter;stroke-miterlimit:4;stroke-opacity:1" inkscape:connector-curvature="0" />
            <path sodipodi:nodetypes="ccscc" id="path4061" d="m 392.91743,515.58736 c 6.99741,6.62913 9.93501,18.0752 6.10485,21.61073 -8.85319,2.56581 -61.06068,-7.41328 -57.05428,-22.8313 2.76654,-10.64661 16.88755,-7.67661 22.03365,-9.3037 12.31859,-3.69855 20.88717,3.82149 28.91578,10.52427 z" style="fill:#fba809;fill-opacity:1;fill-rule:evenodd;stroke:#000000;stroke-width:2.5;stroke-linecap:butt;stroke-linejoin:miter;stroke-miterlimit:4;stroke-opacity:1" inkscape:connector-curvature="0" />
            <path id="path5306" d="m 367.99174,488.68167 c 0.99902,0.18053 1.63711,1.26716 1.69459,2.63714 -0.15387,-0.41345 -0.41683,-0.75716 -0.86187,-0.83758 -0.71472,-0.12915 -1.42904,0.39531 -1.59445,1.17068 -0.16542,0.77537 0.28039,1.50947 0.99511,1.63862 0.58321,0.10539 1.0929,-0.28309 1.37757,-0.82931 -0.008,0.0429 -10e-4,0.0818 -0.0106,0.12494 -0.40995,1.92156 -1.79233,3.29141 -3.08564,3.0577 -1.29331,-0.2337 -2.01025,-1.98291 -1.6003,-3.90447 0.40996,-1.92157 1.79232,-3.29143 3.08563,-3.05772 z" style="fill:#000000;fill-opacity:1;fill-rule:nonzero;stroke:#000000;stroke-width:0.47994199pt;stroke-linecap:butt;stroke-linejoin:miter;stroke-opacity:1" inkscape:connector-curvature="0" />
            <path id="path5308" d="m 378.36736,487.17341 c 0.89083,0.29043 1.34231,1.44014 1.22908,2.80645 -0.0906,-0.42754 -0.2892,-0.798 -0.68605,-0.92739 -0.63732,-0.20778 -1.35336,0.23329 -1.59829,0.98454 -0.24493,0.75126 0.0735,1.52961 0.71086,1.73739 0.52006,0.16955 1.03269,-0.15932 1.35885,-0.66983 -0.0126,0.0417 -0.0112,0.081 -0.0248,0.12283 -0.607,1.8618 -2.03563,3.06767 -3.18889,2.69167 -1.15327,-0.37599 -1.59661,-2.19218 -0.98961,-4.05398 0.607,-1.8618 2.03562,-3.06768 3.18889,-2.69168 z" style="fill:#000000;fill-opacity:1;fill-rule:nonzero;stroke:#000000;stroke-width:0.47994189pt;stroke-linecap:butt;stroke-linejoin:miter;stroke-opacity:1" inkscape:connector-curvature="0" />
            <path sodipodi:nodetypes="ccc" id="path10929" d="m 346.9723,514.33658 c 19.03221,12.06239 18.10661,16.79865 49.37073,23.25825 0,-0.14731 0,-0.29463 0,-0.44194" style="fill:none;stroke:#000000;stroke-width:1.625;stroke-linecap:butt;stroke-linejoin:miter;stroke-miterlimit:4;stroke-opacity:1" inkscape:connector-curvature="0" />
            <path sodipodi:nodetypes="cccc" id="path12175" d="m 372.01823,505.38439 c 18.64401,4.89021 30.53217,20.63289 26.97645,28.45393 -2.87262,-10.31197 -17.23572,-24.38045 -45.52,-25.63262 10.31198,-1.25216 12.15772,-1.4374 18.54355,-2.82131 z" style="fill:#ffffff;fill-opacity:0.42510119;stroke:none" inkscape:connector-curvature="0" />
            <path transform="matrix(0.854395,0.150326,-0.179971,1.022885,139.5592,-159.1121)" sodipodi:nodetypes="ccccc" id="path2326" d="m 545.00686,566.06933 -51.90324,18.6683 -42.91595,-3.59199 0.0402,-26.61817 94.77895,11.54186 z" style="fill:#ffffff;fill-opacity:1;stroke:#000000;stroke-width:2.63376379;stroke-linecap:butt;stroke-linejoin:miter;stroke-miterlimit:4;stroke-opacity:1" inkscape:connector-curvature="0" />
            <path sodipodi:nodetypes="czz" id="path2390" d="m 410.28109,498.84885 c 4.47917,-7.5 15.76271,-10.94147 20.96891,-6.17417 5.42076,4.96378 -4.89277,12.03585 -13.01777,17.03585" style="fill:#a7a7a7;fill-opacity:1;stroke:#000000;stroke-width:2.5;stroke-linecap:butt;stroke-linejoin:miter;stroke-miterlimit:4;stroke-opacity:1" inkscape:connector-curvature="0" />
            <path transform="matrix(0.854395,0.150326,-0.179971,1.022885,139.5592,-159.1121)" id="path2325" d="m 430.19119,570.20375 15.10924,-12.81631 90.15181,12.37436 -79.0717,7.07107 -26.18935,-6.62912 z" style="fill:#ffffff;fill-opacity:1;stroke:#000000;stroke-width:2.63376498;stroke-linecap:butt;stroke-linejoin:miter;stroke-miterlimit:4;stroke-opacity:1" inkscape:connector-curvature="0" />
            <path transform="matrix(0.854395,0.150326,-0.179971,1.022885,139.5592,-159.1121)" id="path1703" d="m 429.07942,571.97151 2.90981,-13.25825 25.02433,17.23573 -27.93414,-3.97748 z" style="fill:#ffffff;fill-opacity:1;stroke:#000000;stroke-width:2.63376403;stroke-linecap:butt;stroke-linejoin:miter;stroke-miterlimit:4;stroke-opacity:1" inkscape:connector-curvature="0" />
            <path transform="matrix(0.854395,0.150326,-0.179971,1.022885,139.5592,-159.1121)" id="path2328" d="m 467.90036,543.2453 2.78626,-13.25825 23.96182,17.23573 -26.74808,-3.97748 z" style="fill:#ffffff;fill-opacity:1;stroke:#000000;stroke-width:2.63376379;stroke-linecap:butt;stroke-linejoin:miter;stroke-miterlimit:4;stroke-opacity:1" inkscape:connector-curvature="0" />
            <path transform="matrix(0.854395,0.150326,-0.179971,1.022885,139.5592,-159.1121)" sodipodi:nodetypes="ccccc" id="path2327" d="m 467.59313,543.18223 -16.14949,10.91266 93.25026,11.75207 -48.9694,-18.88728 -28.13137,-3.77745 z" style="fill:#ffffff;fill-opacity:1;stroke:#000000;stroke-width:2.63376451;stroke-linecap:butt;stroke-linejoin:miter;stroke-miterlimit:4;stroke-opacity:1" inkscape:connector-curvature="0" />
            <path sodipodi:nodetypes="ccc" id="path2393" d="m 360.0858,442.18673 c -36.59871,4.00633 -60.50783,24.16842 -63.62161,81.92888 -4.64038,-47.43508 19.22878,-83.63856 63.62161,-81.92888 z" style="fill:#ffffff;fill-opacity:0.42510119;stroke:none" inkscape:connector-curvature="0" />
            <path id="path1488" d="m 280,580.48718 0,0 z" style="fill:#3b3b3b;fill-opacity:1;stroke:none" inkscape:connector-curvature="0" />
            <path transform="matrix(0.935484,0,0,1,21.41472,-1.299017)" d="m 335.9375,616.42468 c 0,2.93402 -1.60898,5.3125 -3.59375,5.3125 -1.98477,0 -3.59375,-2.37848 -3.59375,-5.3125 0,-2.93401 1.60898,-5.3125 3.59375,-5.3125 1.98477,0 3.59375,2.37849 3.59375,5.3125 z" sodipodi:ry="5.3125" sodipodi:rx="3.59375" sodipodi:cy="616.42468" sodipodi:cx="332.34375" id="path3601" style="fill:#fafafa;fill-opacity:1;stroke:#000000;stroke-width:2.58476973;stroke-linecap:butt;stroke-linejoin:miter;stroke-miterlimit:4;stroke-opacity:1" sodipodi:type="arc" />
            <path sodipodi:nodetypes="cc" id="path4228" d="m 268.01545,602.4655 11.43687,25.44305" style="fill:#fafafa;fill-opacity:1;stroke:#000000;stroke-width:2.5;stroke-linecap:butt;stroke-linejoin:miter;stroke-miterlimit:4;stroke-opacity:1" inkscape:connector-curvature="0" />
            <path sodipodi:nodetypes="cc" id="path4229" d="m 278.33176,628.3616 28.81775,-13.74271" style="fill:#fafafa;fill-opacity:1;stroke:#000000;stroke-width:2.5;stroke-linecap:butt;stroke-linejoin:miter;stroke-miterlimit:4;stroke-opacity:1" inkscape:connector-curvature="0" />
            <path sodipodi:nodetypes="cc" id="path4230" d="m 288.14601,623.23675 12.26064,19.0192" style="fill:#fafafa;fill-opacity:1;stroke:#000000;stroke-width:2.5;stroke-linecap:butt;stroke-linejoin:miter;stroke-miterlimit:4;stroke-opacity:1" inkscape:connector-curvature="0" />
            <path sodipodi:nodetypes="cc" id="path4231" d="m 276.94582,621.62984 -19.0238,8.00396" style="fill:#fafafa;fill-opacity:1;stroke:#000000;stroke-width:2.5;stroke-linecap:butt;stroke-linejoin:miter;stroke-miterlimit:4;stroke-opacity:1" inkscape:connector-curvature="0" />
        </g>
    </g>
</svg>